<svg width="375" height="122" viewBox="0 0 375 122" fill="none" xmlns="http://www.w3.org/2000/svg">
<path d="M0 3.05176e-05L19.7396 108.444H39.4792L59.2187 27.1111L78.9583 81.3334L98.6719 27.1111L118.411 54.2223L138.151 40.6667L157.891 67.7778L177.63 108.444L197.37 27.1111L217.109 3.05176e-05L236.849 54.2223L256.589 67.7778L276.328 13.5556L296.042 40.6667L315.781 54.2223L335.521 67.7778H355.26L375 13.5556V122H355.26H335.521H315.781H296.042H276.328H256.589H236.849H217.109H197.37H177.63H157.891H138.151H118.411H98.6719H78.9583H59.2187H39.4792H19.7396H0V3.05176e-05Z" fill="#E8F9FD"/>
</svg>
